<svg width="1239" height="402" viewBox="0 0 1239 402" fill="none" xmlns="http://www.w3.org/2000/svg">
<g opacity="0.5">
<path d="M1114.12 0C1110.69 179.056 1020.65 347.267 680.707 318.557C322.336 288.291 149.011 487.814 62.1248 689.995H61.6981C148.619 487.682 322.06 287.971 680.781 318.273C1020.31 346.95 1110.27 178.911 1113.7 0H1114.12Z" fill="black"/>
<path d="M1100.84 0C1116.49 171.079 1039.2 330.367 683.525 309.592C295.573 286.93 133.105 488.198 59.9478 689.995H59.5176C132.717 488.065 295.272 286.625 683.595 309.308C1038.83 330.06 1116.05 170.947 1100.41 0H1100.84Z" fill="black"/>
<path d="M1090.09 0C1123.2 163.143 1056.51 313.744 686.348 300.626C267.916 285.797 117.806 488.607 58.8744 689.995H58.4477C117.397 488.472 267.59 285.499 686.387 300.34C1056.11 313.444 1122.72 162.998 1089.65 0H1090.09Z" fill="black"/>
<path d="M1081.98 0C1130.74 155.225 1072.47 297.42 689.177 291.66C239.306 284.895 103.128 489.026 58.9612 689.995H58.5485C102.73 488.893 238.977 284.609 689.209 291.374C1072.02 297.126 1130.24 155.079 1081.53 0H1081.98Z" fill="black"/>
<path d="M1076.65 0C1139.08 147.334 1086.97 281.417 691.985 282.695C209.689 284.254 89.1959 489.445 60.2968 689.995H59.8735C88.7796 489.31 209.336 283.97 692.003 282.408C1086.49 281.133 1138.53 147.197 1076.16 0H1076.65Z" fill="black"/>
<path d="M1074.05 0C1147.99 139.502 1099.88 265.764 694.802 273.729C179.018 283.871 76.0905 489.842 62.9211 689.995H62.4979C75.6847 489.707 178.658 283.594 694.802 273.443C1099.37 265.492 1147.42 139.371 1073.56 0H1074.05Z" fill="black"/>
<path d="M1074.38 0C1157.52 131.745 1111.14 250.485 697.619 264.763C147.245 283.764 63.982 490.2 66.9412 689.995H66.5179C63.5448 490.065 146.87 283.492 697.598 264.477C1110.59 250.218 1156.92 131.613 1073.86 0H1074.38Z" fill="black"/>
<path d="M1077.66 0C1167.51 124.083 1120.6 235.614 700.433 255.79C144.553 282.498 60.6646 469.656 70.0878 659.085C70.6031 669.391 71.3726 679.694 72.3963 689.995H71.9731C70.9704 679.71 70.202 669.413 69.668 659.104C60.2239 469.533 144.172 282.231 700.405 255.511C1120.02 235.356 1166.87 123.955 1077.12 0H1077.66Z" fill="black"/>
<path d="M1083.72 0C1177.61 116.533 1128.12 221.182 703.253 246.829C145.411 280.506 57.3177 449.349 71.0047 627.363C72.6067 648.186 75.6009 669.127 79.3995 689.995H78.9728C75.1777 669.135 72.187 648.198 70.578 627.387C56.884 449.23 145.033 280.241 703.229 246.546C1127.51 220.933 1176.93 116.419 1083.13 0H1083.72Z" fill="black"/>
<path d="M1092.61 0C1187.73 109.126 1133.57 207.226 706.071 237.864C146.015 278.002 53.0704 431.548 70.0699 598.637C73.141 628.842 79.8079 659.492 87.9579 689.995H87.5242C79.3812 659.504 72.7178 628.866 69.6467 598.658C52.6297 431.427 145.644 277.742 706.04 237.57C1132.94 206.984 1187.01 109.006 1091.98 0H1092.61Z" fill="black"/>
<path d="M1104.18 0C1197.62 101.888 1136.87 193.776 708.884 228.898C146.176 275.075 48.0516 415.862 67.601 572.729C72.4001 611.233 84.2857 650.709 98.1337 689.995H97.6964C83.859 650.716 71.9803 611.263 67.1813 572.765C47.6144 415.748 145.792 274.822 708.849 228.614C1136.23 193.542 1196.87 101.772 1103.52 0H1104.18Z" fill="black"/>
<path d="M1117.94 0C1206.71 94.8507 1137.84 180.873 711.705 219.932C145.838 271.798 42.3968 401.932 63.884 549.36C70.5649 595.173 89.3028 642.671 109.968 689.995H109.524C88.8551 642.682 70.1312 595.208 63.4538 549.398C41.9421 401.813 145.436 271.547 711.649 219.648C1137.16 180.648 1205.92 94.7371 1117.25 0H1117.94Z" fill="black"/>
<path d="M1133.83 0C1214.98 88.0478 1136.46 168.542 714.52 210.964C144.974 268.227 36.1805 389.447 59.1263 528.227C67.7695 580.479 95.0771 635.229 123.508 689.995H123.053C94.6363 635.25 67.3497 580.521 58.6925 528.27C35.7327 389.332 144.596 267.981 714.471 210.683C1135.77 168.325 1214.17 87.9413 1133.09 0H1133.83Z" fill="black"/>
<path d="M1150.99 0C1221.69 81.5146 1132.59 156.822 717.333 201.999C143.6 264.418 29.4794 378.153 53.5061 509.044C63.7163 564.651 98.8625 623.39 134.306 682.596L138.72 689.995H138.255L133.9 682.712C98.4603 623.492 63.3035 564.748 53.1003 509.089C29.0457 378.04 143.219 264.183 717.294 201.715C1131.88 156.612 1220.84 81.4104 1150.22 0H1150.99Z" fill="black"/>
<path d="M1168.89 0C1226.52 75.289 1126.22 145.739 720.148 193.033C141.746 260.4 22.3648 367.839 47.1644 491.546C58.2246 546.71 97.946 605.125 138.434 664.653C144.172 673.08 149.894 681.527 155.597 689.995H155.129C149.474 681.571 143.783 673.167 138.056 664.781C97.5543 605.227 57.8223 546.798 46.7622 491.596C21.9275 367.725 141.365 260.156 720.096 192.751C1125.49 145.536 1225.65 75.1872 1168.09 0H1168.89Z" fill="black"/>
<path d="M1186.69 0C1229.02 69.3994 1117.34 135.309 722.962 184.067C139.449 256.209 14.8771 358.336 40.2294 475.505C52.0242 530.021 96.2613 587.807 141.838 647.341C152.653 661.468 163.525 675.694 174.092 689.995H173.623C163.105 675.739 152.255 661.563 141.474 647.481C95.88 587.923 51.6254 530.116 39.8202 475.557C14.4329 358.223 139.064 255.97 722.91 183.786C1116.61 135.112 1228.1 69.3024 1185.84 0H1186.69Z" fill="black"/>
<path d="M1203.26 0C1228.53 63.8743 1106.06 125.536 725.776 175.102C136.74 251.874 7.06791 349.505 32.7805 460.723C45.2013 514.437 93.8668 571.357 144.543 630.619C161.26 650.167 178.193 669.972 194.115 690H193.629C177.741 670.022 160.854 650.268 144.18 630.771C93.482 571.487 44.7956 514.555 32.3643 460.782C6.61319 349.401 136.352 251.642 725.713 174.825C1105.33 125.342 1227.6 63.7796 1202.37 0H1203.26Z" fill="black"/>
<path d="M1217.83 0C1224.99 58.7348 1092.53 116.419 728.594 166.134C133.674 247.412 -1.03098 341.235 24.8985 447.03C37.8405 499.856 90.8397 555.688 146.595 614.429C170.031 639.107 193.925 664.298 215.555 689.995H215.058C193.466 664.352 169.611 639.216 146.239 614.59C90.4585 555.825 37.4557 499.97 24.4823 447.087C-1.4892 341.129 133.265 247.18 728.527 165.854C1091.81 116.223 1224.05 58.6425 1216.91 0H1217.83Z" fill="black"/>
<path d="M1229.13 0C1217.93 53.9786 1077 107.915 731.407 157.168C130.251 242.847 -9.39277 333.446 16.6416 434.278C30.0314 486.139 87.235 540.726 148.031 598.744C178.941 628.236 210.775 658.628 238.258 689.995H237.757C210.31 658.69 178.536 628.359 147.681 598.914C86.8572 540.87 29.6326 486.262 16.2219 434.34C-9.85449 333.337 129.856 242.613 731.334 156.882C1076.26 107.728 1217.01 53.8887 1228.27 0H1229.13Z" fill="black"/>
<path d="M1236.29 0C1207.2 49.6082 1059.77 99.9949 734.226 148.202C126.543 238.186 -17.9803 326.051 8.06808 422.348C21.8216 473.189 83.1072 526.405 148.891 583.526C188.042 617.524 228.785 652.904 262.053 689.995H261.553C228.323 652.971 187.644 617.65 148.552 583.709C82.7399 526.562 21.4228 473.319 7.65183 422.412C-18.442 325.945 126.138 237.956 734.153 147.928C1059.05 99.8127 1206.1 49.5183 1235.2 0H1236.29Z" fill="black"/>
<path d="M1238.22 0C1192.58 45.5974 1041.21 92.6004 737.035 139.237C122.535 233.448 -26.7843 318.997 -0.791891 411.134C13.2589 460.927 78.4971 512.672 149.199 568.745C197.308 606.905 247.932 647.067 286.699 689.995H286.188C247.46 647.14 196.913 607.037 148.874 568.936C78.1333 512.833 12.8602 461.062 -1.20813 411.198C-27.2495 318.893 122.129 233.219 736.958 138.957C1040.49 92.4206 1191.53 45.5122 1237.18 0H1238.22Z" fill="black"/>
<path d="M1235.45 0C1175.11 41.9108 1021.7 85.6579 739.852 130.269C118.286 228.638 -35.776 312.232 -9.892 400.543C4.39318 449.273 73.4545 499.468 148.997 554.372C206.74 596.34 268.242 641.064 311.997 689.995H311.482C267.759 641.142 206.344 596.482 148.679 554.573C73.0977 499.636 4.0014 449.415 -10.3048 400.604C-36.2447 312.131 117.874 228.413 739.772 129.992C1020.99 85.4875 1174.03 41.828 1234.32 0H1235.45Z" fill="black"/>
<path d="M1226.54 0C1154.14 38.5105 1001.67 79.1034 742.665 121.303C113.813 223.77 -44.9363 305.718 -19.2062 390.503C-4.73914 438.164 68.0089 486.752 148.305 540.383C216.3 585.798 289.695 634.833 337.734 689.995H337.216C289.205 634.916 215.915 585.947 148.004 540.589C67.6591 486.927 -5.1309 438.313 -19.6189 390.569C-45.4015 305.621 113.386 223.541 742.581 121.024C1000.96 78.9259 1153.16 38.4254 1225.49 0H1226.54Z" fill="black"/>
<path d="M1212.34 0C1130.76 35.3374 981.455 72.8423 745.481 112.337C109.098 218.846 -54.2578 299.426 -28.7096 380.948C-14.1097 427.542 62.1922 474.483 147.155 526.751C225.982 575.245 312.232 628.329 363.653 689.995H363.139C311.721 628.419 225.594 575.401 146.864 526.961C61.8669 474.668 -14.4944 427.693 -29.1224 381.012C-54.7196 299.329 108.689 218.624 745.393 112.06C980.766 72.6672 1129.69 35.257 1211.17 0H1212.34Z" fill="black"/>
<path d="M1192.45 0C1104.87 32.3441 961.448 66.8013 748.297 103.372C104.209 213.875 -63.7155 293.317 -38.3666 371.821C-23.6757 417.357 56.047 462.623 145.581 513.46C235.745 564.656 335.825 621.505 389.566 689.995H389.048C335.321 621.611 235.364 564.821 145.301 513.682C55.7147 462.808 -24.0535 417.521 -38.7794 371.892C-64.1702 293.215 103.814 213.657 748.234 103.088C960.766 66.6262 1103.83 32.2613 1191.27 0H1192.45Z" fill="black"/>
<path d="M1168.12 0C1077.55 29.481 941.855 60.9165 751.121 94.4129C99.1452 208.868 -73.3192 287.37 -48.2047 363.073C-33.4474 407.559 49.5598 451.142 143.564 500.488C245.523 554.01 360.381 614.323 415.241 689.995H414.724C359.871 614.425 245.141 554.173 143.291 500.717C49.231 451.341 -33.8286 407.738 -48.614 363.147C-73.7739 287.261 98.7324 208.648 751.02 94.129C941.18 60.7437 1076.52 29.3982 1166.92 0H1168.12Z" fill="black"/>
<path d="M1140.28 0C1049.45 26.7006 922.803 55.1476 753.916 85.4378C93.9164 203.818 -83.0182 281.566 -58.1626 354.664C-43.3807 398.139 42.785 440.012 141.158 487.819C255.303 543.289 385.842 606.751 440.51 689.995H440.013C385.339 606.86 254.932 543.468 140.903 488.053C42.4562 440.215 -43.7585 398.311 -58.5754 354.737C-83.4905 281.466 93.5036 203.601 753.829 85.1633C922.134 54.9748 1048.43 26.6202 1139.08 0H1140.28Z" fill="black"/>
<path d="M1108.71 0C1020.42 23.97 904.543 49.4284 756.738 76.4721C88.5463 198.738 -92.8376 275.889 -68.2373 346.555C-53.4555 389.026 35.7464 429.205 138.383 475.437C265.058 532.491 412.152 598.767 465.263 689.995H464.77C411.645 598.883 264.694 532.676 138.139 475.676C35.4316 429.413 -53.8297 389.208 -68.6501 346.63C-93.3098 275.79 88.1336 198.527 756.644 76.1929C903.896 49.2533 1019.38 23.899 1107.45 0H1108.71Z" fill="black"/>
<path d="M1074.73 0C991.211 21.263 887.049 43.7376 759.553 67.5064C83.0321 193.629 -102.759 270.324 -78.4282 338.718C-63.6673 380.21 28.4448 418.697 135.244 463.324C190.052 486.224 248.725 510.741 302.812 538.116C386.361 580.403 458.913 629.512 489.362 689.995H488.883C458.452 629.609 385.98 580.573 302.549 538.345C248.48 510.98 189.811 486.466 135.003 463.572C28.13 418.917 -64.0485 380.399 -78.8479 338.798C-103.235 270.225 82.6193 193.412 759.455 67.2319C886.426 43.5696 990.186 21.1778 1073.46 0H1074.73Z" fill="black"/>
<path d="M1038.54 0C961.92 18.5489 870.42 38.0397 762.368 58.5408C77.4005 188.492 -112.777 264.855 -88.7118 331.122C-73.9929 371.658 20.9139 408.47 131.767 451.469C198.517 477.36 271.048 505.493 335.342 538.04C417.992 579.871 487.032 628.989 512.797 689.995H512.322C486.56 629.086 417.614 580.041 335.09 538.272C270.803 505.732 198.282 477.604 131.544 451.717C20.6096 408.687 -74.3707 371.85 -89.1246 331.2C-113.26 264.758 76.9878 188.279 762.249 58.2663C869.797 37.8598 960.898 18.4567 1037.24 0H1038.54Z" fill="black"/>
</g>
</svg>
